# xmcd
#
# Track frame offsets:
#	150
#	14638
#	28318
#	41432
#	55579
#	69638
#	84261
#	98252
#	111219
#	124410
#	137699
#	151696
#	164812
#	177970
#	191564
#	204988
#	218488
#	231803
#	245848
#	259814
#	274395
#	288642
#	301980
#	316409
#
# Disc length: 4379 seconds
#
# Revision: 1
# Processed by: cddbd v1.4PL0 Copyright (c) Steve Scherf et al.
# Submitted via: CDmax 2.0
#
DISCID=5b111918
DTITLE=The Carter Family - Volume 2, Disc 2, New York City, 1935-1936
DYEAR=1900
DGENRE=Country
TTITLE0=Sea Of Galilee
TTITLE1=Don't Forget This Song
TTITLE2=My Clinch Mountain Home
TTITLE3=Storms Are On The Ocean, The
TTITLE4=Will You Miss Me When I'm Gone
TTITLE5=Broken Hearted Lover
TTITLE6=Little Darling Pal Of Mine
TTITLE7=Homestead On The Farm, The
TTITLE8=Cannon Ball Blues
TTITLE9=Meet Me By The Moonlight Alone
TTITLE10=On The Rock Where Moses Stood
TTITLE11=Lulu Walls
TTITLE12=I'm Thinking Tonight Of My Blue Eyes
TTITLE13=Worried Man Blues
TTITLE14=My Dixie Darling
TTITLE15=Give Me Your Love And I'll Give You Mine
TTITLE16=Are You Lonesome Tonight?
TTITLE17=Last Move For Me, The
TTITLE18=Wayworn Traveller, The
TTITLE19=Just Another Broken Heart
TTITLE20=When Silver Threads Are Gold Again
TTITLE21=There's No One Like Mother To Me
TTITLE22=In A Little Village Churchyard
TTITLE23=Jealous Hearted Me
EXTD=
EXTT0=
EXTT1=
EXTT2=
EXTT3=
EXTT4=
EXTT5=
EXTT6=
EXTT7=
EXTT8=
EXTT9=
EXTT10=
EXTT11=
EXTT12=
EXTT13=
EXTT14=
EXTT15=
EXTT16=
EXTT17=
EXTT18=
EXTT19=
EXTT20=
EXTT21=
EXTT22=
EXTT23=
PLAYORDER=
